<?xml version="1.0" encoding="UTF-8"?>
<!DOCTYPE svg PUBLIC "-//W3C//DTD SVG 1.1//EN" "http://www.w3.org/Graphics/SVG/1.1/DTD/svg11.dtd">
<!-- Creator: CorelDRAW 2017 -->
<svg xmlns="http://www.w3.org/2000/svg" xml:space="preserve" width="210mm" height="297mm" version="1.1" style="shape-rendering:geometricPrecision; text-rendering:geometricPrecision; image-rendering:optimizeQuality; fill-rule:evenodd; clip-rule:evenodd"
viewBox="0 0 21000 29700"
 xmlns:xlink="http://www.w3.org/1999/xlink">
 <defs>
  <style type="text/css">
   <![CDATA[
    .fil2 {fill:#093545}
    .fil4 {fill:#17576E}
    .fil8 {fill:#29728C}
    .fil7 {fill:#5BA4BF}
    .fil0 {fill:#8AE0FF}
    .fil3 {fill:#CCF1FF}
    .fil9 {fill:#CFF2FF}
    .fil6 {fill:#DE3E3E}
    .fil5 {fill:#FF6666}
    .fil10 {fill:white}
    .fil1 {fill:white}
   ]]>
  </style>
 </defs>
 <g id="Слой_x0020_1">
  <metadata id="CorelCorpID_0Corel-Layer"/>
  <rect class="fil0" x="820.14" y="4742.2" width="16000" height="12000"/>
  <path class="fil1" d="M2057.1 13077.68l6402.93 0 -347.71 -178.08 -144.18 -262.9c-106.2,-193.67 -289.19,-333.54 -503.93,-385.21 -214.74,-51.66 -441.32,-10.34 -624,113.82l-161.13 -228.98c-269.58,-383.09 -729.34,-585.12 -1193.85,-524.62 -464.51,60.52 -857.18,373.6 -1019.62,812.96l-118.72 -59.36c-270.78,-135.39 -585.43,-152.98 -869.62,-48.61 -284.18,104.35 -512.67,321.41 -631.47,599.86l-788.7 161.12z"/>
  <path class="fil1" d="M10135.49 6526.45l4074.4 0 -221.26 -113.32 -91.74 -167.29c-67.58,-123.24 -184.02,-212.24 -320.67,-245.12 -136.65,-32.88 -280.83,-6.58 -397.07,72.43l-102.53 -145.71c-171.55,-243.77 -464.11,-372.34 -759.69,-333.83 -295.59,38.5 -545.46,237.73 -648.82,517.31l-75.55 -37.77c-172.3,-86.16 -372.53,-97.35 -553.36,-30.94 -180.84,66.41 -326.24,204.53 -401.83,381.71l-501.88 102.53z"/>
  <g id="_2046376033328">
   <path class="fil2" d="M8772.53 7304.16l9.33 -35.43 1254.13 -171.33c240.76,-32.89 479.13,74.77 613.63,277.16 433.84,652.83 488.49,1486.9 143.53,2190.75 -152.61,311.39 -517.69,454.76 -841.41,330.43l-1179.21 -2591.58z"/>
   <path class="fil3" d="M9157.18 9268.13l-623.01 369.62c-383.49,227.53 -785.36,422.53 -1201.4,582.99 -174.83,67.43 -370.89,51.36 -532.41,-43.66 -177.03,-104.15 -295.79,-284.46 -321.56,-488.23 -25.77,-203.76 44.35,-407.97 189.89,-552.91 132.09,-131.55 324.23,-182.84 504.32,-134.63 204.86,54.85 421.8,43.72 619.99,-31.78l547.09 -304.96c191.16,-106.56 426.96,-91.48 602.99,38.55 176.03,130.03 259.76,350.98 214.1,565.01z"/>
   <path class="fil2" d="M8239.13 10722.06l-1000.73 624.62c-370.53,231.27 -593.16,639.44 -587,1076.17l775.14 970.82 2107.19 -1881.42 -307.46 -1644.48 -1141.96 297.38 154.82 556.91z"/>
   <path class="fil4" d="M10409.06 9815.11l99.02 289.4 100.81 237.44c74.44,175.33 45.39,377.5 -75.41,524.77 -120.81,147.29 -313.37,215.32 -499.89,176.62l-864.1 -1009.69 1239.57 -218.54z"/>
   <path class="fil2" d="M8403.14 7576.24l-346.24 243.49c-211.73,148.9 -331.04,397 -315.15,655.36 15.89,258.36 164.7,489.97 393.09,611.8l562.22 -1317.83 -293.92 -192.82z"/>
   <path class="fil1" d="M8705.91 7290.35l1015.98 210.71 165.57 188.14c152.13,172.86 237.53,394.38 240.82,624.63 6.42,450.72 180.87,882.8 489.17,1211.64 145.16,154.83 192.55,377.34 123.07,577.88 -69.48,200.55 -244.38,346.05 -454.21,377.89l-338.65 -142.98c-367.14,-155.02 -788.28,-109.5 -1113.81,120.4 -178.85,126.3 -381,215.84 -594.72,263.4l-248.16 -195.67c-144.96,-114.3 -212.13,-301.21 -173.08,-481.64 78.64,-363.31 96.44,-737.15 52.68,-1106.29 -28.57,-240.93 -18.89,-484.12 28.03,-720.7 40.99,-206.67 139.19,-371.83 301.19,-506.54l506.12 -420.87z"/>
   <path class="fil5" d="M9075.24 7366.94c54.6,246.27 -964.32,539.81 -767.95,254.89 144.91,-174.16 14.44,-655.97 -212.78,-941.1l491.43 -312.32c64.24,403.2 192.15,936.94 489.3,998.53z"/>
   <path class="fil6" d="M8326.19 7594.78c76.3,-129.8 42.88,-376.18 -53.17,-606.19 13,-1.98 26.27,-3.03 39.76,-3.03 155.89,0 282.25,136.46 282.25,304.79 0,163.48 -119.18,296.86 -268.84,304.43z"/>
   <path class="fil3" d="M10130.18 8374.63c20.54,428.63 192.86,836.82 487.27,1150.84 145.16,154.83 192.55,377.34 123.07,577.88 -69.48,200.55 -244.38,346.05 -454.21,377.89l-338.65 -142.98c-57.98,-24.48 -117.32,-43.95 -177.39,-58.48 238.74,-475.45 290.11,-1025.98 139.29,-1540.72l-85.42 -291.53 306.04 -72.9z"/>
   <path class="fil4" d="M10512.8 12507.83l-745.77 -17.24 -226.11 -379.56c-341.06,-572.51 -516.07,-1039.97 -514.6,-1706.36 1.09,-511.23 738.49,-604.3 1123.66,-333.91 730.78,513.03 654.6,1631.45 362.82,2437.07z"/>
   <g>
    <polygon class="fil7" points="8931.34,14559.41 13590.62,11454.22 13662.68,11566.8 12851.57,13093.27 8192.29,15946.3 "/>
    <polygon class="fil8" points="8931.34,14307.25 13590.62,11454.22 12851.57,12841.1 8192.29,15694.13 "/>
    <polygon class="fil9" points="13173.84,11518.38 12509.94,11921.64 12519.81,11886.51 10645.63,12895.29 12166.57,13142.74 12463.63,12086.33 13104.2,11904.47 13239.27,11634.29 "/>
    <polygon class="fil7" points="3977.61,14307.25 8636.9,11454.22 12166.57,12895.29 12166.57,13147.46 7507.29,15748.32 3977.61,14559.41 "/>
    <polygon class="fil7" points="8192.29,15694.13 12851.57,12841.1 12166.57,12895.29 7507.29,15748.32 "/>
    <path class="fil1" d="M8795.1 11518.82l159.55 -150.17 301.69 85.57c396.83,112.56 807.85,167.14 1220.29,162.09 685.41,-8.41 1334.61,307.01 1751.62,851.03 32.59,-447.64 278.64,-638.74 676.56,-759.85 120.39,-36.64 217.8,-74.17 269.03,-189.11l232.37 48.78 -690.65 1284.72 -548.99 43.41 -3371.47 -1376.47z"/>
    <polygon class="fil8" points="3977.61,14559.41 8636.9,11706.39 12166.57,13147.46 7507.29,16000.48 "/>
    <polygon class="fil4" points="8192.29,15946.3 12851.57,13093.27 12166.57,13147.46 7507.29,16000.48 "/>
    <polygon class="fil4" points="7496.62,13073.72 8427.1,12503.94 10645.63,13409.69 9715.15,13979.48 "/>
   </g>
   <path class="fil1" d="M9721.89 7501.06l708.66 150.21c436.22,92.46 863.92,221.3 1278.63,385.14 174.28,68.85 307.6,213.51 362.03,392.83 59.65,196.53 24.84,409.62 -94.25,576.95 -119.1,167.34 -309.03,270.03 -514.27,278.04 -186.29,7.26 -362.36,-85.18 -462.15,-242.65 -113.53,-179.14 -280.63,-317.93 -477.56,-396.67l-609.01 -146.34c-212.79,-51.14 -376.01,-221.98 -417.39,-436.87 -41.39,-214.91 46.72,-434.15 225.31,-560.64z"/>
   <path class="fil5" d="M8020.81 5867.84c793.72,0 789.36,296.56 789.36,850.21 0,553.64 -688.84,798.05 -793.71,798.05 -104.87,0 -524.08,-244.41 -524.08,-798.05 0,-553.65 -265.28,-850.21 528.43,-850.21z"/>
   <path class="fil10" d="M8216.54 7091.55c-48.14,144.56 -234.92,209.38 -266.89,209.38 -31.97,0 -147.26,-64.82 -176.77,-209.38l443.66 0z"/>
   <path class="fil2" d="M7481.5 6511.66l-123.86 -349.55c-64.07,-180.83 -20.9,-382.32 111.65,-521.02 132.54,-138.69 331.87,-190.96 515.42,-135.15l531.81 84.67c136.87,21.79 238.37,138.66 240.77,277.23 61.96,-23.81 150.43,-9.21 171.72,72.02 85.92,327.75 30.97,798.63 -139.77,1157.54l-95.45 -160.06c-53.44,-89.61 -89.99,-188.25 -107.85,-291.04l-187.18 0.32 -6.59 -391.91 -672.05 71.44c-81.04,8.61 -162.99,0.51 -240.77,-23.81l2.15 209.32z"/>
   <ellipse class="fil5" cx="8619.37" cy="6675.78" rx="134.64" ry="243.04"/>
   <path class="fil2" d="M9669.08 7354.21l-143.33 304.44c-84.46,179.41 -117.27,374.48 -100.23,564.93 17,190.01 83.91,375.92 198.88,537.48 114.69,161.17 268.63,285.25 443.21,363.85 174.43,78.52 369.35,111.47 566.19,90.49l31.64 297.66c-250.74,26.73 -498.9,-15.19 -720.87,-115.11 -221.8,-99.86 -417.65,-257.89 -563.93,-463.45 -145.99,-205.16 -231.05,-442.17 -252.78,-685.14 -21.69,-242.53 19.93,-490.61 127.19,-718.45l143.33 -304.44 270.7 127.74z"/>
   <path class="fil5" d="M11446.6 9206.41c-4.1,58.57 17.36,116.05 58.83,157.6 44.22,44.3 91.25,85.7 140.79,123.97 66.07,51.05 160.46,41.85 215.42,-21.01l127.09 37.82c46.96,13.98 97.74,5.98 138.13,-21.77 40.4,-27.75 66.08,-72.26 69.89,-121.12l77.74 -285.76c25.15,-92.46 -25.24,-188.67 -115.56,-220.63 -180.14,-63.75 -366.96,-106.76 -556.84,-128.18 -157.98,-17.82 -259,268.84 -148.8,383.43l-6.69 95.65z"/>
   <path class="fil6" d="M6841.01 9090.86c-9.14,-57.99 -42.96,-109.19 -92.69,-140.37 -53.03,-33.25 -108.16,-63.04 -165.02,-89.22 -75.85,-34.92 -165.76,-4.77 -205.22,68.82l-132.33 -8.34c-48.9,-3.08 -96.59,16.11 -129.72,52.21 -33.14,36.11 -48.18,85.25 -40.93,133.72l-11.64 295.91c-3.75,95.75 66.95,178.2 162.13,189.08 189.85,21.7 381.56,21.69 571.4,-0.05 157.96,-18.08 192.07,-320.11 58.97,-407.04l-14.95 -94.72z"/>
   <g>
    <path class="fil2" d="M7945.05 6567.62l0 -109.35 112.49 7.5c58.21,3.89 113.43,27.21 156.79,66.25l-21.82 56.23c-29.66,-6.23 -59.74,-10.2 -89.99,-11.88l-157.47 -8.75z"/>
    <ellipse class="fil2" cx="8056.22" cy="6733.62" rx="82.05" ry="104.1"/>
   </g>
   <g>
    <path class="fil2" d="M7736.15 6567.62l0 -109.35 -80.14 7.5c-41.48,3.89 -80.82,27.21 -111.71,66.25l15.55 56.23c21.13,-6.23 42.56,-10.2 64.11,-11.88l112.19 -8.75z"/>
    <ellipse class="fil2" cx="7656.95" cy="6733.62" rx="58.46" ry="104.1"/>
   </g>
  </g>
  <path class="fil1" d="M10135.49 15420.77l5378.13 0 -292.06 -149.58 -121.1 -220.82c-89.2,-162.67 -242.9,-280.16 -423.27,-323.56 -180.38,-43.39 -370.69,-8.68 -524.13,95.61l-135.34 -192.33c-226.44,-321.78 -612.61,-491.48 -1002.78,-440.66 -390.16,50.83 -719.98,313.8 -856.42,682.85l-99.72 -49.86c-227.44,-113.72 -491.74,-128.5 -730.44,-40.84 -238.7,87.66 -430.62,269.97 -530.4,503.86l-662.47 135.33z"/>
  <path class="fil1" d="M2779.44 7766.69l2976.35 0 -161.63 -82.78 -67.02 -122.21c-49.37,-90.02 -134.43,-155.04 -234.25,-179.06 -99.82,-24.01 -205.15,-4.8 -290.06,52.91l-74.9 -106.44c-125.32,-178.07 -339.03,-271.99 -554.96,-243.86 -215.92,28.13 -398.45,173.66 -473.96,377.9l-55.18 -27.6c-125.87,-62.93 -272.14,-71.11 -404.24,-22.6 -132.1,48.51 -238.31,149.41 -293.53,278.84l-366.62 74.9z"/>
 </g>
</svg>
